PathFileType	4	(X/Y/Z)	6_coords_data.trc
DataRate	CameraRate	NumFrames	NumMarkers	Units	OrigDataRate	OrigDataStartFrame	OrigNumFrames
30.0	30.0	7	21	m	30.0	1	68
Frame#	Time	THUMB_TIP	THUMB_IP	THUMB_MCP	THUMB_CMC	INDEX_TIP	INDEX_DIP	INDEX_PIP	INDEX_MCP	MIDDLE_TIP	MIDDLE_DIP	MIDDLE_PIP	MIDDLE_MCP	RING_TIP	RING_DIP	RING_PIP	RING_MCP	PINKY_TIP	PINKY_DIP	PINKY_PIP	PINKY_MCP	WRIST
X1	Y1	Z1	X2	Y2	Z2	X3	Y3	Z3	X4	Y4	Z4	X5	Y5	Z5	X6	Y6	Z6	X7	Y7	Z7	X8	Y8	Z8	X9	Y9	Z9	X10	Y10	Z10	X11	Y11	Z11	X12	Y12	Z12	X13	Y13	Z13	X14	Y14	Z14	X15	Y15	Z15	X16	Y16	Z16	X17	Y17	Z17	X18	Y18	Z18	X19	Y19	Z19	X20	Y20	Z20	X21	Y21	Z21
0	0.0	0.011358499526977539	-0.18795500183105468	1.10893994140625	0.0161737003326416	-0.16070799255371093	1.1049200439453124	0.00046495899558067304	-0.13203399658203124	1.1023299560546875	-0.007473559856414795	-0.09146179962158203	1.1015799560546875	0.042778301239013675	-0.15440400695800782	0.9739879760742187	0.037666301727294925	-0.142968994140625	0.9916939697265625	0.033438201904296874	-0.12935000610351563	1.0120399780273437	0.021646699905395507	-0.10632599639892579	1.0439200439453125	0.031874799728393556	-0.09411019897460937	0.937156005859375	0.032386001586914064	-0.09248580169677735	0.9646939697265625	0.03207569885253906	-0.09020400238037109	0.990947998046875	0.019380300521850587	-0.08283409881591797	1.0349100341796875	0.040402900695800784	-0.038015499114990234	0.9494530029296875	0.03858969879150391	-0.0445807991027832	0.9747369995117188	0.037746498107910156	-0.05106719970703125	1.0015700073242189	0.03071150016784668	-0.06055870056152344	1.0372099609375	0.049777000427246094	0.011940699577331543	1.0126099853515624	0.045844898223876954	-0.003783920049667358	1.0241199951171875	0.0403484001159668	-0.01780150032043457	1.0343599853515626	0.023910800933837892	-0.038358200073242185	1.0466500244140624	-0.02611669921875	-0.05668870162963867	1.106219970703125
1	0.03333333333333333	0.011708399772644044	-0.18626100158691405	1.1090899658203126	0.015449399948120118	-0.15942999267578126	1.10493994140625	0.00024559099972248005	-0.1313179931640625	1.1015799560546875	-0.006926889896392822	-0.09098500061035156	1.1000699462890624	0.0434093017578125	-0.15443899536132813	0.9740120239257812	0.038439998626708986	-0.14286199951171874	0.9930390014648437	0.033692501068115235	-0.12986799621582032	1.0138400268554688	0.021643999099731446	-0.10594499969482422	1.0445699462890625	0.032540699005126954	-0.09409829711914063	0.9375809936523437	0.03279809951782227	-0.09264779663085937	0.964114013671875	0.030054800033569334	-0.08967389678955077	0.9954769897460938	0.019752300262451172	-0.08276529693603515	1.03575	0.040363498687744144	-0.03801390075683594	0.9512999877929688	0.039442100524902345	-0.04448059844970703	0.9753189697265625	0.03670849990844727	-0.051360198974609375	1.0022899780273438	0.02628700065612793	-0.059872798919677735	1.0391199951171874	0.04899969863891602	0.011701700210571288	1.0120800170898439	0.045610801696777344	-0.0037269599437713625	1.0249599609375	0.039706798553466795	-0.018127099990844726	1.0358199462890625	0.024737499237060548	-0.03999190139770508	1.0491600341796874	-0.026701900482177736	-0.05739440155029297	1.10577001953125
2	0.06666666666666667	0.011402400016784667	-0.18667999267578125	1.109760009765625	0.015294300079345704	-0.1599219970703125	1.10547998046875	0.00011960399895906402	-0.13169200134277342	1.102199951171875	-0.006934010028839112	-0.09132839965820312	1.1005400390625	0.0433739013671875	-0.15484800720214845	0.974489990234375	0.03840900039672852	-0.14323699951171875	0.9935419921875	0.03363779830932617	-0.13030999755859374	1.0142899780273438	0.02148970031738281	-0.10641699981689454	1.0450899658203125	0.03276010131835937	-0.0942699966430664	0.9380449829101563	0.03296699905395508	-0.09287290191650391	0.9645919799804688	0.03006089973449707	-0.08998149871826172	0.9959739990234375	0.01971619987487793	-0.08318620300292968	1.03618994140625	0.04063290023803711	-0.03840679931640625	0.9519329833984375	0.039566699981689456	-0.04485070037841797	0.97589697265625	0.0367504997253418	-0.051784900665283205	1.002760009765625	0.026175699234008788	-0.060280200958251956	1.0395999755859375	0.04911660003662109	0.011249699592590333	1.012760009765625	0.04564059829711914	-0.004187510013580322	1.0255799560546874	0.039690399169921876	-0.018535999298095702	1.0363499755859376	0.024688699722290038	-0.04037089920043945	1.0496300048828124	-0.026857799530029296	-0.05781480026245117	1.1061800537109374
3	0.1	0.0115	-0.18701600646972658	1.11056005859375	0.01523610019683838	-0.16026199340820313	1.1061300048828124	8.052860386669002e-06	-0.13204200744628905	1.10277001953125	-0.007085879802703857	-0.09174459838867187	1.100969970703125	0.0435265998840332	-0.15527400207519532	0.9750789794921875	0.03852790069580078	-0.14372799682617188	0.9940850219726562	0.033694400787353515	-0.1307830047607422	1.014780029296875	0.021495599746704102	-0.10684100341796875	1.0455899658203125	0.03310530090332031	-0.09445709991455079	0.9385440063476562	0.033069599151611326	-0.0931636962890625	0.965073974609375	0.030125	-0.09036100006103516	0.9963629760742188	0.019670299530029297	-0.08364559936523437	1.0365899658203126	0.040745098114013674	-0.039046100616455075	0.9522899780273437	0.03972259902954101	-0.04539820098876953	0.976469970703125	0.03675500106811523	-0.05228239822387695	1.003260009765625	0.026174800872802734	-0.06071730041503906	1.04006005859375	0.04901050186157226	0.010816699981689453	1.0131900024414062	0.045537200927734375	-0.004640409946441651	1.026050048828125	0.03953319931030273	-0.01899220085144043	1.036800048828125	0.0245443000793457	-0.04083810043334961	1.05002001953125	-0.02700119972229004	-0.05815230178833008	1.106719970703125
4	0.13333333333333333	0.011410599708557128	-0.1870899963378906	1.1106500244140625	0.01531980037689209	-0.16035800170898437	1.1065	7.967270165681801e-05	-0.1322030029296875	1.1030999755859374	-0.007042089939117432	-0.09193830108642578	1.1013299560546874	0.043590499877929685	-0.15552999877929688	0.9753839721679688	0.038568199157714846	-0.14400100708007812	0.99435498046875	0.033690601348876956	-0.13103199768066406	1.01502001953125	0.021313600540161133	-0.10712000274658204	1.045800048828125	0.033251800537109376	-0.0945386962890625	0.9387490234375	0.03318140029907227	-0.0933010025024414	0.965281005859375	0.030134000778198243	-0.09055370330810547	0.996531005859375	0.019478200912475586	-0.08391739654541015	1.0368399658203125	0.041086299896240235	-0.039386199951171874	0.9526129760742188	0.03984640121459961	-0.04574100112915039	0.976635009765625	0.03680300140380859	-0.052567298889160154	1.0033099975585937	0.025968900680541994	-0.06100799942016601	1.0401099853515625	0.04895259857177734	0.010549099922180175	1.0133699951171875	0.04545380020141602	-0.004874800205230713	1.02618994140625	0.03945500183105469	-0.01919820022583008	1.0369300537109376	0.024388599395751952	-0.041066600799560544	1.0501500244140625	-0.027042999267578124	-0.058458499908447266	1.10668994140625
5	0.16666666666666666	0.01137380027770996	-0.18733799743652343	1.1111199951171875	0.015063899993896485	-0.1605260009765625	1.1065799560546874	-0.000154208004474639	-0.13232200622558593	1.1033199462890626	-0.007228740215301514	-0.09202629852294922	1.1014599609375	0.043234600067138675	-0.15558900451660157	0.9754299926757812	0.038237300872802735	-0.14405599975585937	0.9944530029296875	0.03339400100708008	-0.13113099670410155	1.0151099853515626	0.020945999145507814	-0.10722799682617187	1.046	0.03314849853515625	-0.0944822998046875	0.9388880004882812	0.03302170181274414	-0.09325859832763672	0.9653759765625	0.029890100479125978	-0.0905458984375	0.996614990234375	0.019208200454711916	-0.0840208969116211	1.03693994140625	0.04097579956054687	-0.03960039901733398	0.9527020263671875	0.039733200073242186	-0.045944900512695314	0.9768049926757812	0.03664739990234375	-0.05269660186767578	1.0034400024414063	0.02570630073547363	-0.061103500366210935	1.04018994140625	0.0487761001586914	0.01043340015411377	1.013489990234375	0.045272201538085935	-0.0049563698768615725	1.026300048828125	0.03926089859008789	-0.019269199371337892	1.037030029296875	0.024234800338745116	-0.041158798217773435	1.05027001953125	-0.02719350051879883	-0.058501300811767576	1.1069300537109374
6	0.2	0.010878199577331544	-0.18723800659179687	1.111300048828125	0.014826399803161621	-0.16061799621582032	1.1069000244140625	-0.000270678013563156	-0.13250900268554688	1.1033499755859375	-0.007418069839477539	-0.09230860137939453	1.1015799560546875	0.04316970062255859	-0.15568299865722657	0.9757540283203125	0.03813999938964844	-0.14416400146484376	0.9947369995117188	0.0332411003112793	-0.13127499389648437	1.0154400024414063	0.020837900161743163	-0.10741400146484376	1.0461400146484374	0.03319340133666992	-0.09455120086669921	0.9392230224609375	0.03302239990234375	-0.09336180114746094	0.9656900024414062	0.029678400039672852	-0.09064089965820313	0.9970009765625	0.019023399353027343	-0.08412349700927735	1.037260009765625	0.041192699432373046	-0.0397588005065918	0.9530910034179687	0.03984960174560547	-0.04605270004272461	0.97722900390625	0.03657880020141602	-0.05284659957885742	1.0038800048828125	0.025374900817871093	-0.06118149948120117	1.0405699462890625	0.04867720031738281	0.01028279972076416	1.0138499755859376	0.045180999755859375	-0.005115630149841309	1.0266199951171875	0.03909400177001953	-0.019427499771118163	1.0373499755859374	0.023968900680541992	-0.041295398712158204	1.0506400146484376	-0.0274911003112793	-0.05861869812011719	1.107280029296875
